<svg width="100" height="100" viewBox="0 0 100 100" fill="none" xmlns="http://www.w3.org/2000/svg">
<circle cx="50" cy="50" r="50" fill="#DFB483"/>
<path d="M88.5 71.1729V72.0034H80.4179C80.453 71.7229 80.4772 71.4309 80.4898 71.1271H86.845H87.345V70.6271V53.8249V53.3249H86.845H74.4997C74.1534 53.3249 73.7794 53.1185 73.4705 52.6761C73.1639 52.2371 72.9583 51.6083 72.9583 50.901V35.8914V35.3914H72.4583H68.947H68.447V35.8914V70.6271L69.4388 70.7174C69.5149 70.3028 69.6253 69.8829 69.7651 69.4687C69.7389 69.837 69.7263 70.2233 69.7263 70.6271C69.7263 71.1084 69.7542 71.5672 69.8077 72.0034H55.3736H41.0483C41.0832 71.701 41.1066 71.4089 41.1188 71.1271H66.9056H67.4056V70.6271V23.251V22.751H66.9056H42.8586H21.0414H20.5414V23.251V70.6271V71.1271H21.0414H30.1976C30.1839 71.2922 30.1706 71.4582 30.1572 71.6241C30.135 71.9004 30.1128 72.1762 30.089 72.4467H21.0414C20.4788 72.4467 20.1097 72.3943 19.8768 72.2413C19.6972 72.1233 19.5 71.8749 19.5 71.1729V23.9238C19.5 23.2166 19.7057 22.5878 20.0122 22.1488C20.3211 21.7063 20.6951 21.5 21.0414 21.5H66.9056C67.2519 21.5 67.6259 21.7063 67.9348 22.1488C68.2414 22.5878 68.447 23.2166 68.447 23.9238V33.8135V34.3135H68.947H83.1077C83.1877 34.6805 83.2534 34.9976 83.3116 35.2782C83.5375 36.3678 83.6496 36.9087 84.0367 37.6913L88.5 51.0811V53.8249V71.1729ZM86.845 52.3217H87.5404L87.319 51.6625L81.9681 35.7322L81.8536 35.3914H81.4941H74.4997H73.9997V35.8914V51.8217V52.3217H74.4997H86.845Z" fill="black" stroke="black"/>
<path d="M41.249 71.6357C41.249 75.9892 38.2595 79 35.166 79C32.0725 79 29.083 75.9892 29.083 71.6357C29.083 67.2823 32.0725 64.2715 35.166 64.2715C38.2595 64.2715 41.249 67.2823 41.249 71.6357Z" stroke="black" stroke-width="4"/>
<path d="M80.6538 71.6357C80.6538 75.9892 77.6643 79 74.5708 79C71.4773 79 68.4878 75.9892 68.4878 71.6357C68.4878 67.2822 71.4773 64.2715 74.5708 64.2715C77.6643 64.2715 80.6538 67.2822 80.6538 71.6357Z" stroke="black" stroke-width="4"/>
</svg>
