<svg width="100" height="100" viewBox="0 0 100 100" fill="none" xmlns="http://www.w3.org/2000/svg">
<circle cx="50" cy="50" r="50" fill="#DFB483"/>
<path d="M76.7254 81.9617C77.4222 81.9617 78 81.3106 78 80.5254V34.1214C78 34.1022 78 34.0639 78 34.0448C78 33.6618 77.864 33.2979 77.6431 33.0489L65.7634 17.5171L65.7464 17.4979C65.7464 17.4979 65.7464 17.4979 65.7294 17.4788C65.6954 17.4213 65.6445 17.383 65.6105 17.3447C65.6105 17.3447 65.6105 17.3447 65.5935 17.3256C65.5425 17.2873 65.5085 17.249 65.4575 17.2107L65.4405 17.1915C65.3385 17.1149 65.2366 17.0766 65.1176 17.0383H65.1006C64.9986 17.0192 64.8967 17 64.7947 17H29.2746C28.5778 17 28 17.6511 28 18.4364V80.5637C28 81.3489 28.5778 82 29.2746 82H76.7254V81.9617ZM66.0693 22.2666L73.9551 32.5893H66.0693V22.2666ZM30.5493 19.8344H63.5201V34.0256C63.5201 34.8108 64.0979 35.462 64.7947 35.462H75.4677V79.0699H30.5493V19.8344Z" fill="black"/>
<path d="M40.7294 51.2045C37.1434 51.2045 34.2372 54.4794 34.2372 58.5203C34.2372 60.3014 34.7981 61.9293 35.7498 63.1933V73.8032C35.7498 74.3394 36.0217 74.8373 36.4466 75.0863C36.8715 75.3353 37.3814 75.297 37.7723 74.9714L40.7464 72.5775L43.7036 74.9714C43.9245 75.1438 44.1795 75.2395 44.4514 75.2395C44.6553 75.2395 44.8423 75.1821 45.0292 75.0863C45.4541 74.8373 45.726 74.3394 45.726 73.8032V63.1933C46.6608 61.9293 47.2386 60.3014 47.2386 58.5203C47.2216 54.4985 44.3154 51.2045 40.7294 51.2045ZM40.7294 54.0772C42.9048 54.0772 44.6723 56.0689 44.6723 58.5203C44.6723 60.9717 42.9048 62.9635 40.7294 62.9635C39.6417 62.9635 38.639 62.4655 37.9252 61.642C37.9252 61.642 37.9252 61.642 37.9082 61.6229C37.2114 60.8185 36.7865 59.7269 36.7865 58.5203C36.7865 56.0689 38.554 54.0772 40.7294 54.0772ZM41.4772 69.6282C41.0353 69.2643 40.4405 69.2643 39.9816 69.6282L38.2821 71.0071V65.2999C39.0299 65.6447 39.8627 65.8362 40.7124 65.8362C41.5792 65.8362 42.395 65.6447 43.1428 65.2999V71.0071L41.4772 69.6282Z" fill="black"/>
<path d="M35.9878 28.4909H40.7295C41.4263 28.4909 42.0041 27.8397 42.0041 27.0545C42.0041 26.2693 41.4263 25.6182 40.7295 25.6182H35.9878C35.291 25.6182 34.7131 26.2693 34.7131 27.0545C34.7131 27.8397 35.291 28.4909 35.9878 28.4909Z" fill="black"/>
<path d="M54.3086 31.7466H35.9878C35.291 31.7466 34.7131 32.3978 34.7131 33.183C34.7131 33.9682 35.291 34.6193 35.9878 34.6193H54.3086C55.0054 34.6193 55.5833 33.9682 55.5833 33.183C55.5833 32.3978 55.0054 31.7466 54.3086 31.7466Z" fill="black"/>
<path d="M54.3086 37.8942H35.9878C35.291 37.8942 34.7131 38.5454 34.7131 39.3306C34.7131 40.1158 35.291 40.7669 35.9878 40.7669H54.3086C55.0054 40.7669 55.5833 40.1158 55.5833 39.3306C55.5833 38.5454 55.0054 37.8942 54.3086 37.8942Z" fill="black"/>
</svg>
