<svg width="100" height="100" viewBox="0 0 100 100" fill="none" xmlns="http://www.w3.org/2000/svg">
<circle cx="50" cy="50" r="50" fill="#DFB483"/>
<path d="M29.6624 85H70.3376C72.91 85 75 82.8423 75 80.1867V25.7884C75 23.1328 72.91 20.9751 70.3376 20.9751H64.3489V16.556C64.3489 15.7054 63.6656 15 62.8416 15C62.0177 15 61.3344 15.7054 61.3344 16.556V20.9751H51.5072V16.556C51.5072 15.7054 50.824 15 50 15C49.176 15 48.4928 15.7054 48.4928 16.556V20.9751H38.6656V16.556C38.6656 15.7054 37.9823 15 37.1584 15C36.3344 15 35.6511 15.7054 35.6511 16.556V20.9751H29.6624C27.09 20.9751 25 23.1328 25 25.7884V80.166C25 82.8216 27.09 85 29.6624 85ZM28.0145 25.7884C28.0145 24.8548 28.758 24.0871 29.6624 24.0871H35.6511V28.5477C35.6511 29.3983 36.3344 30.1037 37.1584 30.1037C37.9823 30.1037 38.6656 29.3983 38.6656 28.5477V24.0871H48.4928V28.5477C48.4928 29.3983 49.176 30.1037 50 30.1037C50.824 30.1037 51.5072 29.3983 51.5072 28.5477V24.0871H61.3344V28.5477C61.3344 29.3983 62.0177 30.1037 62.8416 30.1037C63.6656 30.1037 64.3489 29.3983 64.3489 28.5477V24.0871H70.3376C71.242 24.0871 71.9855 24.8548 71.9855 25.7884V80.166C71.9855 81.0996 71.242 81.8672 70.3376 81.8672H29.6624C28.758 81.8672 28.0145 81.0996 28.0145 80.166V25.7884V25.7884Z" fill="black"/>
<path d="M35.1085 42.4066C35.41 42.7178 35.7918 42.8631 36.1736 42.8631C36.5555 42.8631 36.9373 42.7178 37.2388 42.4066L42.5643 36.9087C43.1471 36.3071 43.1471 35.3112 42.5643 34.7095C41.9815 34.1079 41.0169 34.1079 40.4341 34.7095L36.1736 39.1079L34.6262 37.5104C34.0434 36.9087 33.0788 36.9087 32.496 37.5104C31.9132 38.112 31.9132 39.1079 32.496 39.7095L35.1085 42.4066Z" fill="black"/>
<path d="M46.4028 40.1038H66.4389C67.2629 40.1038 67.9462 39.3984 67.9462 38.5477C67.9462 37.6971 67.2629 36.9917 66.4389 36.9917H46.4028C45.5788 36.9917 44.8955 37.6971 44.8955 38.5477C44.8955 39.3984 45.5788 40.1038 46.4028 40.1038Z" fill="black"/>
<path d="M35.1085 56.8464C35.41 57.1576 35.7918 57.3029 36.1736 57.3029C36.5555 57.3029 36.9373 57.1576 37.2388 56.8464L42.5643 51.3485C43.1471 50.7468 43.1471 49.751 42.5643 49.1493C41.9815 48.5477 41.0169 48.5477 40.4341 49.1493L36.1736 53.5269L34.6262 51.9294C34.0434 51.3278 33.0788 51.3278 32.496 51.9294C31.9132 52.5311 31.9132 53.5269 32.496 54.1286L35.1085 56.8464Z" fill="black"/>
<path d="M46.4028 54.5436H66.4389C67.2629 54.5436 67.9462 53.8382 67.9462 52.9875C67.9462 52.1369 67.2629 51.4315 66.4389 51.4315H46.4028C45.5788 51.4315 44.8955 52.1369 44.8955 52.9875C44.8955 53.8382 45.5788 54.5436 46.4028 54.5436Z" fill="black"/>
<path d="M35.1085 71.2656C35.41 71.5768 35.7918 71.722 36.1736 71.722C36.5555 71.722 36.9373 71.5768 37.2388 71.2656L42.5643 65.7676C43.1471 65.166 43.1471 64.1701 42.5643 63.5685C41.9815 62.9668 41.0169 62.9668 40.4341 63.5685L36.1736 67.9668L34.6262 66.3693C34.0434 65.7676 33.0788 65.7676 32.496 66.3693C31.9132 66.971 31.9132 67.9668 32.496 68.5685L35.1085 71.2656Z" fill="black"/>
<path d="M46.4028 68.9834H66.4389C67.2629 68.9834 67.9462 68.278 67.9462 67.4274C67.9462 66.5768 67.2629 65.8714 66.4389 65.8714H46.4028C45.5788 65.8714 44.8955 66.5768 44.8955 67.4274C44.8955 68.278 45.5788 68.9834 46.4028 68.9834Z" fill="black"/>
</svg>
