<svg width="100" height="100" viewBox="0 0 100 100" fill="none" xmlns="http://www.w3.org/2000/svg">
<circle cx="50" cy="50" r="50" fill="#DFB483"/>
<path d="M26.8731 72.4933C26.9351 72.5556 26.9764 72.597 27.0384 72.6385C33.0903 78.6533 41.4143 82.3659 50.5851 82.3659C54.6129 82.3659 58.558 81.6607 62.2759 80.2504C64.8784 83.1748 68.6377 85 72.8306 85C80.6382 85 87 78.6119 87 70.7719C87 66.4993 85.1204 62.6622 82.1254 60.0489C83.4267 56.4193 84.0876 52.603 84.0876 48.683C84.0876 39.4741 80.3904 31.1363 74.4004 25.0385C74.3591 24.9763 74.3178 24.9141 74.2558 24.8726C74.1939 24.8104 74.1526 24.7689 74.0906 24.7274C68.0387 18.7126 59.7147 15 50.5438 15C41.373 15 33.0696 18.7126 26.997 24.7274C26.9351 24.7689 26.8731 24.8104 26.8318 24.8726C26.7698 24.9348 26.7285 24.9763 26.6872 25.0385C20.6973 31.1156 17 39.4741 17 48.683C17 57.8919 20.6973 66.2296 26.6872 72.3274C26.7698 72.3896 26.8112 72.4519 26.8731 72.4933ZM83.9224 70.7719C83.9224 76.9111 78.9445 81.8889 72.8513 81.8889C66.758 81.8889 61.7802 76.8904 61.7802 70.7719C61.7802 64.6533 66.758 59.6548 72.8513 59.6548C78.9445 59.6548 83.9224 64.6326 83.9224 70.7719ZM72.8306 56.5437C65.023 56.5437 58.6613 62.9319 58.6613 70.7719C58.6613 73.2607 59.3016 75.5837 60.4169 77.6163C57.7524 78.5289 54.964 79.0681 52.1343 79.2133V73.6548C52.1343 72.8044 51.432 72.0993 50.5851 72.0993C49.7383 72.0993 49.036 72.8044 49.036 73.6548V79.2133C41.8067 78.84 35.2384 75.9363 30.1986 71.3733L34.1024 67.4533C34.7014 66.8519 34.7014 65.8563 34.1024 65.2548C33.5034 64.6533 32.512 64.6533 31.913 65.2548L28.0091 69.1748C23.4444 64.1141 20.5527 57.5185 20.2015 50.2593H25.7371C26.5839 50.2593 27.2862 49.5541 27.2862 48.7037C27.2862 47.8533 26.5839 47.1481 25.7371 47.1481H20.2015C20.5733 39.8889 23.465 33.2933 28.0091 28.2326L31.913 32.1526C32.2228 32.4637 32.6152 32.6089 33.0077 32.6089C33.4001 32.6089 33.7926 32.4637 34.1024 32.1526C34.7014 31.5511 34.7014 30.5556 34.1024 29.9541L30.1986 26.0341C35.2384 21.4504 41.8067 18.5467 49.036 18.1941V23.7526C49.036 24.603 49.7383 25.3081 50.5851 25.3081C51.432 25.3081 52.1343 24.603 52.1343 23.7526V18.1941C59.3635 18.5674 65.9318 21.4711 70.9717 26.0341L67.0679 29.9541C66.4689 30.5556 66.4689 31.5511 67.0679 32.1526C67.3777 32.4637 67.7701 32.6089 68.1626 32.6089C68.555 32.6089 68.9475 32.4637 69.2573 32.1526L73.1611 28.2326C77.7259 33.2933 80.6176 39.8889 80.9687 47.1481H75.4332C74.5863 47.1481 73.884 47.8533 73.884 48.7037C73.884 49.5541 74.5863 50.2593 75.4332 50.2593H80.9687C80.8241 52.9763 80.3491 55.6519 79.5022 58.2237C77.5193 57.1452 75.2473 56.5437 72.8306 56.5437Z" fill="black"/>
<path d="M50.5851 31.2192C49.7382 31.2192 49.036 31.9244 49.036 32.7748V49.4089L41.0218 57.4563C40.4228 58.0578 40.4228 59.0533 41.0218 59.6548C41.3316 59.9659 41.7241 60.1111 42.1165 60.1111C42.509 60.1111 42.9014 59.9659 43.2112 59.6548L51.6798 51.1511C51.969 50.8607 52.1342 50.4666 52.1342 50.0518V32.7748C52.1342 31.9244 51.4319 31.2192 50.5851 31.2192Z" fill="black"/>
<path d="M69.154 73.2193L69.8769 72.6178C71.013 71.6015 71.9631 70.5437 71.9631 69.237C71.9631 67.8059 70.9923 66.7689 69.216 66.7689C68.1626 66.7689 67.2538 67.1215 66.6548 67.5778L67.1711 68.8844C67.5842 68.5733 68.1626 68.2415 68.8442 68.2415C69.753 68.2415 70.1248 68.7393 70.1248 69.3822C70.1042 70.2948 69.278 71.1867 67.5636 72.7215L66.5515 73.6341V74.7541H72.087V73.24H69.1334V73.2193H69.154Z" fill="black"/>
<path d="M78.201 66.9141H75.9702L73.0166 71.7052V72.9081H76.4866V74.7748H78.2216V72.9081H79.1511V71.5392H78.2216V66.9141H78.201ZM76.466 69.7763V71.5185H74.7103V71.4978L75.7637 69.7763C76.0322 69.2785 76.2388 68.8222 76.4866 68.3244H76.5279C76.4866 68.8222 76.466 69.2992 76.466 69.7763Z" fill="black"/>
</svg>
